# xmcd
#
# Track frame offsets: 
#        150
#        12216
#        24223
#        41955
#        56817
#        68123
#        87007
#        103176
#        118044
#        131529
#        144387
#        161206
#        177145
#        192745
#        208251
#        224390
#        246571
#        261797
#        278759
#        295880
#        311132
#
# Disc length: 4343 seconds
#
# Revision: 0
# Processed by: cddbd v1.4PL0 Copyright (c) Steve Scherf et al.
# Submitted via: ExactAudioCopy v0.90a11
#
DISCID=4b10f515
DTITLE=Various Artist - Новогодняя дискотека 2004 - Русские хиты
DYEAR=1900
DGENRE=
TTITLE0=18 этаж - Радио мороз 2004
TTITLE1=Верка Сердючка - Чита Дрита
TTITLE2=Пропаганда - Яй я
TTITLE3=Иванушки Инт. - Билетик в кино
TTITLE4=Гурцкая Д. - Нежная
TTITLE5=Хамелеон - Клава
TTITLE6=Руки Вверх - Танцуй!
TTITLE7=Света - А может да, а может нет...
TTITLE8=Маски и Колючки - Малышка
TTITLE9=Дискотеа Авария - Песенка разбойников
TTITLE10=Унесенные ветром - Какао 2004
TTITLE11=Блестящие - Апельсиновая песня
TTITLE12=ВИА Гра - Не надо (ремикс)
TTITLE13=Reflex - Acka Raga (remix)
TTITLE14=140 ударов в минуту - 1001 ночь
TTITLE15=Глюкоза - Малыш (ремикс)
TTITLE16=Джонни - Мяу-мяу
TTITLE17=Сочи - Одиноко без тебя
TTITLE18=Ольга - На край света
TTITLE19=Порутчик Ржевский -С раною в груди
TTITLE20=Банда Андрюха - Пьяная снегурочка 2004
EXTD=
EXTT0=
EXTT1=
EXTT2=
EXTT3=
EXTT4=
EXTT5=
EXTT6=
EXTT7=
EXTT8=
EXTT9=
EXTT10=
EXTT11=
EXTT12=
EXTT13=
EXTT14=
EXTT15=
EXTT16=
EXTT17=
EXTT18=
EXTT19=
EXTT20=
PLAYORDER=
